<?xml version="1.0" encoding="UTF-8"?>
<svg id="logo_and_colour_pallete" data-name="logo and colour pallete" xmlns="http://www.w3.org/2000/svg" viewBox="0 0 4000 3200">
  <defs>
    <style>
      .cls-1 {
        fill: #002369;
      }
    </style>
  </defs>
  <path class="cls-1" d="m1727.98,779.63h-547.79c-608.3,0-786.86,187.64-786.86,711.21v929.11h450.94v-913.97c0-272.39,81.71-338.97,366.2-338.97h490.27c290.53,0,366.2,66.57,366.2,338.97v913.97h450.94v-929.11c0-523.57-178.56-711.21-789.9-711.21Z"/>
  <path class="cls-1" d="m3220.97,1417.54l-485.79-231.33c-38.65-18.4-83.27,9.77-83.27,52.57v1123.34c0,32.16,26.08,58.25,58.23,58.25l838.3-.04c32.17,0,58.23-26.06,58.23-58.23v-333.71c-.02-260.96-150.1-498.64-385.7-610.85Zm116.1,477.37c0,15.36-14.27,27.84-31.9,27.84h-459.33c-17.63,0-31.9-12.45-31.9-27.81v-445.03c0-20.44,24.44-33.9,45.62-25.11l266.18,110.55c129.08,53.61,211.33,167.2,211.33,291.89v67.68Z"/>
</svg>