<?xml version="1.0" encoding="UTF-8"?>
<svg id="logo_and_colour_pallete" data-name="logo and colour pallete" xmlns="http://www.w3.org/2000/svg" viewBox="0 0 4000 3200">
  <defs>
    <style>
      .cls-1 {
        fill: #96d228;
      }
    </style>
  </defs>
  <path class="cls-1" d="m665.28,1940.69v-287c0-85.53-23.76-106.44-114.99-106.44h-153.95c-89.33,0-114.99,20.91-114.99,106.44v287h-141.6v-291.75c0-164.4,56.07-223.32,247.08-223.32h172.01c191.96,0,248.03,58.92,248.03,223.32v291.75h-141.6Z"/>
  <path class="cls-1" d="m945.62,1940.69v-400.08h-72.22v-114.99h72.22v-145.39h144.45v145.39h162.5v114.99h-162.5v400.08h-144.45Z"/>
  <path class="cls-1" d="m1321,1940.69v-298.4c0-153.95,67.47-216.67,241.38-216.67h92.18v114.99h-88.38c-78.88,0-103.58,20.91-103.58,102.63v297.45h-141.6Z"/>
  <path class="cls-1" d="m1983.37,1940.69c-191.01,0-247.08-58.92-247.08-222.37v-292.7h142.55v288.9c0,87.43,29.46,105.49,115.94,105.49h148.25c92.18,0,115.94-18.06,115.94-105.49v-288.9h140.65v292.7c0,163.45-56.07,222.37-248.98,222.37h-167.26Z"/>
  <path class="cls-1" d="m2751.23,1940.69c-191.01,0-247.08-58.92-247.08-222.37v-69.37c0-164.4,56.07-223.32,247.08-223.32h372.52v121.64h-367.77c-89.33,0-110.24,21.86-110.24,106.44v60.82c0,81.73,21.86,106.44,110.24,106.44h368.72v119.74h-373.47Z"/>
  <path class="cls-1" d="m3669.23,1940.69l-299.35-243.28v243.28h-142.55v-681.37h142.55v404.83l297.45-238.53h184.36l-320.26,248.03,328.81,267.04h-191.01Z"/>
</svg>